<svg width="224" height="27" viewBox="0 0 224 27" fill="none" xmlns="http://www.w3.org/2000/svg">
<path d="M1.58628 5.9414C3.03175 5.871 4.48009 5.871 5.9313 5.9414L6.06924 5.98882V13.8139L5.9313 13.8987L6.02326 13.9044C6.09941 14.6602 6.35804 15.3298 7.12532 15.6444L7.20722 15.7939L7.25607 15.6559H23.6376L23.7223 15.7939C23.7827 17.3054 23.7884 18.9405 23.7223 20.4794C23.6332 21.1562 23.0298 21.6361 22.3774 21.7194L6.25459 21.7338L1.03166 26.8475C0.594854 27.1234 0.287369 26.8576 0 26.54V7.1814C0.419559 6.39688 0.626465 5.99744 1.58628 5.9414Z" fill="#E75D25"/>
<path d="M167.016 6.56068L167.154 8.21449C167.454 8.00615 167.668 7.69005 167.949 7.45871C170.056 5.71726 174.321 5.72731 175.498 8.55934C176.456 7.42279 177.488 6.6196 178.999 6.37533C182.264 5.84801 184.622 7.37681 184.944 10.7304C185.099 14.3857 184.972 18.0583 185.014 21.718H180.945V11.9C180.945 11.4618 180.751 10.6514 180.492 10.285C179.813 9.32087 177.841 9.39271 176.982 10.0752C176.775 10.239 176.119 11.0638 176.119 11.2793V21.7165H172.049V11.3483C172.049 11.2534 171.863 10.6787 171.808 10.5566C171.199 9.21454 168.818 9.35535 167.842 10.2462C167.746 10.3338 167.292 10.8655 167.292 10.9359V21.718H163.223V6.56068H167.016Z" fill="#939598"/>
<path d="M142.468 6.5607L142.537 8.21451C144.54 5.78624 149.469 5.32358 150.88 8.55936C150.977 8.57947 150.968 8.57229 151.023 8.51481C151.139 8.39268 151.267 8.14411 151.395 8.00761C154.506 4.66981 160.532 6.20006 160.394 11.2132V21.7194H156.326V11.6256C156.326 11.4589 156.174 10.8569 156.103 10.6773C155.52 9.17433 153.001 9.29358 152.053 10.387C151.934 10.5235 151.5 11.2103 151.5 11.3497V21.718H147.499L147.502 12.242C147.41 11.2103 147.393 10.1011 146.238 9.71602C145.257 9.38985 143.858 9.5867 143.119 10.3468C143.045 10.4215 142.673 10.9488 142.673 11.0034V21.7166H138.604V6.5607H142.468Z" fill="#939598"/>
<path d="M23.7899 15.7939L23.6519 15.7464V7.36388C23.57 6.70293 23.0513 6.13394 22.3746 6.07647C17.6933 6.09371 13.0121 6.09658 8.33083 6.03624C7.94145 6.03049 7.5535 6.00606 7.16411 5.97876C6.77473 5.95146 6.38678 5.9141 5.99883 5.87387L6.01464 1.24004C6.16263 0.610706 6.68277 0.175341 7.30493 0.0488987C14.4777 0.0359671 21.682 -0.0775437 28.8389 0.106373C29.4539 0.291726 29.8203 0.810427 29.9266 1.42971L29.9295 14.3153C29.9036 15.0366 29.2887 15.7005 28.5746 15.7867L23.7899 15.7939Z" fill="#3F56A6"/>
<path d="M5.9988 5.87241C11.4358 5.93563 16.9217 5.97155 22.3788 5.93851C23.1274 5.99454 23.7051 6.62963 23.7898 7.3538L23.7899 15.7939C23.7899 17.2278 23.8056 18.6661 23.7898 20.1001C23.7898 20.2164 23.8344 20.4061 23.7194 20.478V15.7924H7.20575C6.78332 15.7924 6.09651 15.0553 6.01461 14.64C5.99018 14.5194 5.92983 13.9949 5.92983 13.8972V5.93994C4.50305 6.00173 3.00441 5.85661 1.58481 5.93994C1.65665 5.82643 1.84632 5.87098 1.9627 5.86954C3.30472 5.8523 4.65679 5.85517 5.99736 5.86954L5.9988 5.87241Z" fill="#E97D24"/>
<path d="M72.8194 0.222739V8.04206C72.8194 8.05499 72.93 8.16419 72.9559 8.14551C73.4904 7.34519 74.5695 6.6986 75.5077 6.45721C79.097 5.53045 81.8198 7.71876 81.9204 11.3497V21.718H77.8527V11.6241C77.8527 11.2577 77.5351 10.4143 77.2693 10.1399C76.5624 9.40993 74.8798 9.45879 74.012 9.85392C73.7303 9.9818 72.8179 10.7189 72.8179 11.0034V21.7165H68.8178V0.222739H72.8194Z" fill="#D1D2D4"/>
<path d="M51.8558 11.1773H47.7866C47.7866 9.42434 45.969 8.88552 44.5149 9.32088C43.5982 9.59532 42.9804 10.6615 43.5508 11.5178C44.1959 12.4877 47.1559 12.7708 48.324 13.1558C50.041 13.7234 51.6517 14.8599 51.8472 16.8011C52.373 22.0284 45.0925 23.0758 41.5593 21.0858C40.1081 20.2682 38.8782 18.6201 38.9601 16.8959H42.7189C42.8827 17.2925 42.8841 17.6661 43.1298 18.0698C44.0968 19.6561 48.1099 19.6144 47.926 17.4132C47.8441 16.4304 46.7291 16.1085 45.9403 15.8815C44.4747 15.4605 43.1255 15.3312 41.7418 14.5654C37.6971 12.3268 39.2891 7.51333 43.3741 6.52765C46.8584 5.68566 51.7753 6.88256 51.8558 11.1787V11.1773Z" fill="#D1D2D4"/>
<path d="M66.8895 12.2104H63.0963C62.9425 10.4747 61.8821 9.43439 60.0947 9.58957C58.8532 9.69734 58.1621 10.558 57.8618 11.6989C57.5055 13.0452 57.4969 15.9879 58.073 17.2638C59.1205 19.5828 62.9483 19.1432 63.0977 16.4807H66.7875C66.9757 16.4807 66.8263 17.2523 66.8019 17.3902C65.8967 22.6074 58.346 23.4681 55.2396 19.7509C53.1188 17.2135 53.034 12.0897 54.7252 9.32088C56.4192 6.54921 59.8461 5.68997 62.875 6.61099C65.4268 7.38545 66.8637 9.57808 66.891 12.2089L66.8895 12.2104Z" fill="#D1D2D4"/>
<path d="M120.676 12.2104H116.883C116.729 10.4747 115.669 9.43439 113.882 9.58957C112.649 9.69733 111.948 10.5652 111.649 11.6989C111.292 13.0452 111.284 15.9878 111.86 17.2638C112.907 19.5828 116.735 19.1432 116.885 16.4807H120.574C120.763 16.4807 120.613 17.2523 120.589 17.3902C119.686 22.5945 112.144 23.4824 109.026 19.7509C106.9 17.2077 106.827 12.0983 108.512 9.32088C110.196 6.5492 113.646 5.69428 116.662 6.61098C119.214 7.38544 120.651 9.57807 120.678 12.2089L120.676 12.2104Z" fill="#939598"/>
<path d="M104.954 0.222739H100.885V21.718H104.954V0.222739Z" fill="#D1D2D4"/>
<path d="M192.118 0.222739H188.049V21.718H192.118V0.222739Z" fill="#3F56A6"/>
<path d="M223.047 9.38407C221.392 6.01754 216.98 5.14968 214.323 7.86963V0.222739H210.254V21.718H213.909L214.116 20.2021C215.409 21.6878 216.948 22.1677 218.906 21.9924C224.312 21.5096 224.904 13.1587 223.047 9.38407ZM219.179 17.7178C218.007 19.363 214.984 19.0038 214.326 17.064L214.337 11.1586C214.645 10.318 215.49 9.71885 216.375 9.61253C217.849 9.43436 218.997 9.87978 219.526 11.3166C220.064 12.7793 220.102 16.4217 219.178 17.7178H219.179Z" fill="#3F56A6"/>
<path d="M207.585 20.0082C207.103 17.0554 207.689 13.7636 207.417 10.8066C207.312 9.66143 206.68 8.40419 205.804 7.66565C202.646 5.00174 195.006 6.12679 194.877 11.1083H198.946C198.897 9.02778 202.263 8.69587 203.095 10.3037C203.174 10.4546 203.358 10.933 203.358 11.0738V12.4863C201.094 12.4776 198.66 12.3138 196.648 13.5337C194.967 14.5525 194.247 16.5023 194.631 18.4147C195.408 22.2798 201.107 23.2066 203.564 20.409C203.582 20.8688 203.759 21.2927 203.909 21.718H208.047C207.938 21.1217 207.686 20.6217 207.585 20.0082ZM203.357 17.4807C203.357 17.6833 202.677 18.2782 202.483 18.3989C200.832 19.4205 198.097 19.0081 198.7 16.5482C199.18 14.5912 201.804 14.8499 203.357 14.8283V17.4807Z" fill="#3F56A6"/>
<path d="M98.4024 12.867C97.9383 8.56508 94.796 5.95146 90.4595 6.30636C81.7077 7.02479 82.0382 21.343 90.2325 21.9924C96.0331 22.4522 98.9958 18.3701 98.4024 12.8656V12.867ZM93.2758 17.9736C92.1019 19.123 89.9495 19.0124 88.9681 17.6761C87.8531 16.1574 87.8603 12.6127 88.7368 10.9919C89.6822 9.24471 92.1852 9.08379 93.4396 10.5896C94.7112 12.1155 94.7155 16.5626 93.2758 17.9736Z" fill="#D1D2D4"/>
<path d="M136.398 13.0035C136.033 8.64127 132.819 5.96012 128.456 6.3064C119.705 6.99896 120 21.3401 128.228 21.9924C134.022 22.4508 136.855 18.4722 136.398 13.0035ZM132.329 15.0697C132.186 17.0885 131.237 18.9449 128.925 18.748C126.21 18.5167 125.967 15.3355 126.125 13.2119C126.238 11.6845 126.918 9.8238 128.661 9.61258C132.007 9.20739 132.513 12.4992 132.331 15.0697H132.329Z" fill="#939598"/>
</svg>
